<svg width="200" height="400" style="float:right">
    <text x="0" y="20">図 2</text>
    <g stroke-width="1.5" stroke="black" fill="none">
        <path d="M 20 100 L 156 44 L 100 180 z" />
        <path d="M 60 140 L 156 44" stroke="red" />
    </g>
    <g stroke-width="1" stroke="black" fill="none">
        <path d="M 10 0 L 10 10 L 0 10" transform="translate(60, 140) rotate(225)" stroke="red" />
        <path d="M  20 100 A 180 180 0 0 1  75  61 M  90  55 A 180 180 0 0 1 156  44" />
        <path d="M 156  44 A 180 180 0 0 1 146 108 M 140 124 A 180 180 0 0 1 100 180" />
        <path d="M 100 180 A 150 150 0 0 1  60 155 M  50 145 A 150 150 0 0 1  20 100" />
        <path d="M  60 140 A 250 250 0 0 0  98 114 M 128  84 A 250 250 0 0 0 156  44" stroke="red" />
    </g>
    <g text-anchor="middle">
        <text x="165" y="40">A</text>
        <text x="100" y="198">B</text>
        <text x="10" y="105">C</text>
        <text x="55" y="155">a</text>
        <text x="83" y="65">b</text>
        <text x="142" y="120">c</text>
        <text x="10" y="155" transform="rotate(-45)" font-size="12" fill="red">b sin C</text>
        </g>
    </g>
</svg>
